<?xml version="1.0" standalone="no"?>
<!DOCTYPE svg PUBLIC "-//W3C//DTD SVG 20010904//EN"
 "http://www.w3.org/TR/2001/REC-SVG-20010904/DTD/svg10.dtd">
<svg version="1.0" xmlns="http://www.w3.org/2000/svg"
 width="1036.000000pt" height="1036.000000pt" viewBox="0 0 1036.000000 1036.000000"
 preserveAspectRatio="xMidYMid meet">
<metadata>
Created by potrace 1.11, written by Peter Selinger 2001-2013
</metadata>
<g transform="translate(0.000000,1036.000000) scale(0.100000,-0.100000)"
fill="#000000" stroke="none">
<path d="M7195 6645 c-754 -106 -1308 -772 -1272 -1530 32 -683 510 -1241
1187 -1386 150 -32 429 -33 576 -1 409 88 735 311 958 655 260 399 307 911
125 1356 -255 625 -906 1000 -1574 906z"/>
<path d="M2072 5760 c-109 -29 -187 -74 -272 -160 -87 -86 -131 -163 -160
-276 -36 -141 -18 -294 52 -427 42 -81 164 -203 245 -245 133 -70 286 -88 427
-52 113 29 190 73 276 160 87 86 131 163 160 276 36 141 18 294 -52 427 -42
81 -164 203 -245 245 -132 69 -291 88 -431 52z"/>
</g>
</svg>
